# xmcd
#
# Track frame offsets:
#	150
#	20297
#	36373
#	53050
#	73500
#	91117
#	106967
#	121637
#	138278
#	154036
#	171441
#	188100
#
# Disc length: 2746 seconds
#
# Revision: 0
# Processed by: cddbd v1.5.2PL0 Copyright (c) Steve Scherf et al.
# Submitted via: audiograbber 1.83.01
#
DISCID=930ab80c
DTITLE=San Quinn and Tuf Luv - A Hustlers Hope
DYEAR=2011
DGENRE=Rap
TTITLE0=San Quinn, Tuf Luv - Created A Moster
TTITLE1=San Quinn, Tuf Luv - Taliban Suicide
TTITLE2=San Quinn, Tuf Luv - Like Me
TTITLE3=San Quinn, Tuf Luv, Jamillions - Rap Superstar
TTITLE4=San Quinn, Tuf Luv - Passion
TTITLE5=San Quinn, Tuf Luv - Guess Who
TTITLE6=San Quinn, Tuf Luv, Big Rich - A Hustlers Hope
TTITLE7=San Quinn, Tuf Luv, Pep Love - On My G
TTITLE8=San Quinn, Tuf Luv, TayDaTay - Tryna Get Paid
TTITLE9=San Quinn, Tuf Luv - Foolin Around
TTITLE10=San Quinn, Tuf Luv, B-Legit - Drunk In San Francisco
TTITLE11=San Quinn, Tuf Luv - Blade Runner
EXTD=www.RapMusicGuide.com
EXTT0=
EXTT1=
EXTT2=
EXTT3=
EXTT4=
EXTT5=
EXTT6=
EXTT7=
EXTT8=
EXTT9=
EXTT10=
EXTT11=
PLAYORDER=
